<mxfile modified="2020-10-28T00:08:42.769Z" host="app.diagrams.net" agent="5.0 (X11; CrOS x86_64 13421.53.0) AppleWebKit/537.36 (KHTML, like Gecko) Chrome/86.0.4240.77 Safari/537.36" etag="2d6OH4T8mDVHX1J45V9Z" version="13.8.5" type="github">
  <diagram id="Ht1M8jgEwFfnCIfOTk4-" name="v1-no api">
    <mxGraphModel dx="1240" dy="1458" grid="0" gridSize="10" guides="1" tooltips="1" connect="1" arrows="1" fold="1" page="1" pageScale="1" pageWidth="1169" pageHeight="827" math="0" shadow="0">
      <root>
        <mxCell id="0" />
        <mxCell id="1" parent="0" />
        <mxCell id="S0R8ntSxsDJlFiLfoa4N-2" value="&lt;font color=&quot;#000000&quot;&gt;hike-vpc&lt;/font&gt;" style="outlineConnect=0;gradientColor=none;html=1;whiteSpace=wrap;fontSize=12;fontStyle=0;shape=mxgraph.aws4.group;grIcon=mxgraph.aws4.group_vpc;strokeColor=#879196;fillColor=none;verticalAlign=top;align=left;spacingLeft=30;fontColor=#879196;dashed=0;" vertex="1" parent="1">
          <mxGeometry x="12" y="-814" width="1095" height="539" as="geometry" />
        </mxCell>
        <mxCell id="S0R8ntSxsDJlFiLfoa4N-5" value="vbahole.com hosted zone&lt;br&gt;hike.vbahole.com A record" style="outlineConnect=0;fontColor=#232F3E;gradientColor=none;strokeColor=#232F3E;fillColor=#ffffff;dashed=0;verticalLabelPosition=bottom;verticalAlign=top;align=center;html=1;fontSize=12;fontStyle=0;aspect=fixed;shape=mxgraph.aws4.resourceIcon;resIcon=mxgraph.aws4.hosted_zone;" vertex="1" parent="1">
          <mxGeometry x="309" y="-769" width="188.5" height="188.5" as="geometry" />
        </mxCell>
        <mxCell id="UEzPUAAOIrF-is8g5C7q-201" style="edgeStyle=orthogonalEdgeStyle;rounded=0;orthogonalLoop=1;jettySize=auto;html=1;startArrow=classic;startFill=1;endArrow=open;endFill=0;strokeColor=#808080;strokeWidth=2;" parent="1" source="S0R8ntSxsDJlFiLfoa4N-1" target="S0R8ntSxsDJlFiLfoa4N-6" edge="1">
          <mxGeometry relative="1" as="geometry">
            <mxPoint x="535" y="-645.0000000000001" as="sourcePoint" />
            <mxPoint x="575" y="-562.3961267862085" as="targetPoint" />
          </mxGeometry>
        </mxCell>
        <mxCell id="S0R8ntSxsDJlFiLfoa4N-1" value="hike-webserver&lt;br&gt;Linux ec2 instance" style="outlineConnect=0;dashed=0;verticalLabelPosition=bottom;verticalAlign=top;align=center;html=1;shape=mxgraph.aws3.ec2;fillColor=#F58534;gradientColor=none;" vertex="1" parent="1">
          <mxGeometry x="106" y="-733" width="76.5" height="93" as="geometry" />
        </mxCell>
        <mxCell id="S0R8ntSxsDJlFiLfoa4N-3" value="&lt;span style=&quot;color: rgb(0 , 0 , 0) ; font-family: &amp;#34;tinos&amp;#34; ; font-size: 10px ; font-style: normal ; font-weight: 400 ; letter-spacing: normal ; text-indent: 0px ; text-transform: none ; word-spacing: 0px ; display: inline ; float: none&quot;&gt;Elastic IP&lt;br&gt;34.201.181.141&lt;/span&gt;" style="outlineConnect=0;dashed=0;verticalLabelPosition=bottom;verticalAlign=top;align=center;html=1;shape=mxgraph.aws3.elastic_ip;fillColor=#F58534;gradientColor=none;" vertex="1" parent="1">
          <mxGeometry x="226" y="-703" width="76.5" height="21" as="geometry" />
        </mxCell>
        <mxCell id="S0R8ntSxsDJlFiLfoa4N-4" value="Route 53&lt;br&gt;DNS" style="outlineConnect=0;dashed=0;verticalLabelPosition=bottom;verticalAlign=top;align=center;html=1;shape=mxgraph.aws3.route_53;fillColor=#F58536;gradientColor=none;" vertex="1" parent="1">
          <mxGeometry x="366" y="-733" width="70.5" height="85.5" as="geometry" />
        </mxCell>
        <mxCell id="S0R8ntSxsDJlFiLfoa4N-8" style="edgeStyle=orthogonalEdgeStyle;rounded=0;orthogonalLoop=1;jettySize=auto;html=1;startArrow=classic;startFill=1;" edge="1" parent="1" source="S0R8ntSxsDJlFiLfoa4N-6" target="S0R8ntSxsDJlFiLfoa4N-7">
          <mxGeometry relative="1" as="geometry" />
        </mxCell>
        <mxCell id="S0R8ntSxsDJlFiLfoa4N-6" value="dynamoPool&lt;br&gt;Cognito Identity Pool" style="outlineConnect=0;dashed=0;verticalLabelPosition=bottom;verticalAlign=top;align=center;html=1;shape=mxgraph.aws3.cognito;fillColor=#AD688B;gradientColor=none;" vertex="1" parent="1">
          <mxGeometry x="99" y="-533" width="76.5" height="93" as="geometry" />
        </mxCell>
        <mxCell id="S0R8ntSxsDJlFiLfoa4N-7" value="hike&lt;br&gt;dynamoDb table" style="outlineConnect=0;dashed=0;verticalLabelPosition=bottom;verticalAlign=top;align=center;html=1;shape=mxgraph.aws3.dynamo_db;fillColor=#2E73B8;gradientColor=none;" vertex="1" parent="1">
          <mxGeometry x="319" y="-490" width="72" height="81" as="geometry" />
        </mxCell>
        <mxCell id="S0R8ntSxsDJlFiLfoa4N-11" style="edgeStyle=orthogonalEdgeStyle;rounded=0;orthogonalLoop=1;jettySize=auto;html=1;startArrow=classic;startFill=1;" edge="1" parent="1" source="S0R8ntSxsDJlFiLfoa4N-9" target="S0R8ntSxsDJlFiLfoa4N-10">
          <mxGeometry relative="1" as="geometry" />
        </mxCell>
        <mxCell id="S0R8ntSxsDJlFiLfoa4N-9" value="" style="aspect=fixed;pointerEvents=1;shadow=0;dashed=0;html=1;strokeColor=none;labelPosition=center;verticalLabelPosition=bottom;verticalAlign=top;align=center;fillColor=#00188D;shape=mxgraph.azure.user" vertex="1" parent="1">
          <mxGeometry x="743" y="-738" width="47" height="50" as="geometry" />
        </mxCell>
        <mxCell id="S0R8ntSxsDJlFiLfoa4N-12" style="edgeStyle=orthogonalEdgeStyle;rounded=0;orthogonalLoop=1;jettySize=auto;html=1;startArrow=classic;startFill=1;" edge="1" parent="1" source="S0R8ntSxsDJlFiLfoa4N-10" target="S0R8ntSxsDJlFiLfoa4N-4">
          <mxGeometry relative="1" as="geometry" />
        </mxCell>
        <mxCell id="S0R8ntSxsDJlFiLfoa4N-10" value="" style="aspect=fixed;perimeter=ellipsePerimeter;html=1;align=center;shadow=0;dashed=0;spacingTop=3;image;image=img/lib/active_directory/internet_cloud.svg;" vertex="1" parent="1">
          <mxGeometry x="552" y="-732" width="79.37" height="50" as="geometry" />
        </mxCell>
        <mxCell id="S0R8ntSxsDJlFiLfoa4N-13" value="&lt;b&gt;&lt;font style=&quot;font-size: 17px&quot;&gt;First Crack&lt;/font&gt;&lt;/b&gt;&lt;br&gt;No api.&lt;br&gt;web app uses Cognito to gain unauthenticated access to dynamo" style="text;html=1;resizable=0;autosize=1;align=center;verticalAlign=middle;points=[];fillColor=none;strokeColor=none;rounded=0;fontFamily=Verdana;fontSize=16;" vertex="1" parent="1">
          <mxGeometry x="570" y="-589.5" width="534" height="61" as="geometry" />
        </mxCell>
      </root>
    </mxGraphModel>
  </diagram>
</mxfile>
